<svg width="20" height="20" viewBox="0 0 20 20" fill="none" xmlns="http://www.w3.org/2000/svg">
<path fill-rule="evenodd" clip-rule="evenodd" d="M16.6663 8.33366C16.6663 4.65176 13.6816 1.66699 9.99967 1.66699C6.31778 1.66699 3.33301 4.65176 3.33301 8.33366V14.167C3.33301 15.5477 4.4523 16.667 5.83301 16.667H8.33301C8.33301 17.5875 9.0792 18.3337 9.99967 18.3337C10.9201 18.3337 11.6663 17.5875 11.6663 16.667H14.1663C15.5471 16.667 16.6663 15.5477 16.6663 14.167V8.33366ZM14.1663 15.0003C14.6057 15.0003 14.9656 14.6604 14.9974 14.2292L14.9997 14.167V8.33366C14.9997 5.57224 12.7611 3.33366 9.99967 3.33366C7.28073 3.33366 5.06868 5.50389 5.00126 8.20659L4.99967 8.33366V14.167C4.99967 14.6063 5.33962 14.9662 5.77082 14.998L5.83301 15.0003H14.1663Z" fill="#4F5D6D"/>
</svg>
