<svg width="20" height="20" viewBox="0 0 14 12" fill="none" xmlns="http://www.w3.org/2000/svg">
<path d="M7.99967 5.00002C7.99967 4.63183 8.29815 4.33335 8.66634 4.33335H10.6663C11.0345 4.33335 11.333 4.63183 11.333 5.00002C11.333 5.36821 11.0345 5.66669 10.6663 5.66669H8.66634C8.29815 5.66669 7.99967 5.36821 7.99967 5.00002Z" fill="#237FFA"/>
<path d="M7.99967 7.00002C7.99967 6.63183 8.29815 6.33335 8.66634 6.33335H9.66634C10.0345 6.33335 10.333 6.63183 10.333 7.00002C10.333 7.36821 10.0345 7.66669 9.66634 7.66669H8.66634C8.29815 7.66669 7.99967 7.36821 7.99967 7.00002Z" fill="#237FFA"/>
<path d="M4.27023 5.78297C3.90657 5.54485 3.66634 5.13382 3.66634 4.66669C3.66634 3.93031 4.26329 3.33335 4.99967 3.33335C5.73605 3.33335 6.33301 3.93031 6.33301 4.66669C6.33301 5.13382 6.09278 5.54485 5.72912 5.78297C6.66054 6.08924 7.33301 6.9661 7.33301 8.00002C7.33301 8.36821 7.03453 8.66669 6.66634 8.66669C6.31489 8.66669 6.02695 8.39473 6.0015 8.04977L5.99967 8.00002C5.99967 7.44773 5.55196 7.00002 4.99967 7.00002C4.46711 7.00002 4.03179 7.41633 4.00137 7.94126L3.99967 8.00002C3.99967 8.36821 3.7012 8.66669 3.33301 8.66669C2.96482 8.66669 2.66634 8.36821 2.66634 8.00002C2.66634 6.9661 3.33881 6.08924 4.27023 5.78297Z" fill="#237FFA"/>
<path fill-rule="evenodd" clip-rule="evenodd" d="M13.6663 2.66669C13.6663 1.56212 12.7709 0.666687 11.6663 0.666687H2.33301C1.22844 0.666687 0.333008 1.56212 0.333008 2.66669V9.33335C0.333008 10.4379 1.22844 11.3334 2.33301 11.3334H11.6663C12.7709 11.3334 13.6663 10.4379 13.6663 9.33335V2.66669ZM2.33301 2.00002H11.6663L11.7161 2.00185C12.061 2.0273 12.333 2.31523 12.333 2.66669V9.33335L12.3312 9.38311C12.3057 9.72806 12.0178 10 11.6663 10H2.33301L2.28325 9.99819C1.9383 9.97274 1.66634 9.68481 1.66634 9.33335V2.66669L1.66817 2.61693C1.69362 2.27198 1.98155 2.00002 2.33301 2.00002Z" fill="#237FFA"/>
</svg>
