<svg width="20" height="20" viewBox="0 0 20 20" fill="none" xmlns="http://www.w3.org/2000/svg">
<path fill-rule="evenodd" clip-rule="evenodd" d="M10.0003 1.66699C14.6027 1.66699 18.3337 5.39795 18.3337 10.0003C18.3337 14.6027 14.6027 18.3337 10.0003 18.3337C5.39795 18.3337 1.66699 14.6027 1.66699 10.0003C1.66699 5.39795 5.39795 1.66699 10.0003 1.66699ZM12.8859 3.9888C14.0972 4.57128 15.1053 5.50905 15.7751 6.66699H13.8196L13.8004 6.57753C13.672 6.00796 13.5124 5.47245 13.3262 4.97964L13.2308 4.73683C13.1235 4.47365 13.0083 4.22382 12.8859 3.9888ZM14.0836 8.33366H16.457C16.5941 8.86636 16.667 9.42483 16.667 10.0003C16.667 10.5758 16.5941 11.1343 16.457 11.667H14.0836C14.1383 11.1285 14.167 10.5711 14.167 10.0003C14.167 9.42955 14.1383 8.87218 14.0836 8.33366ZM12.4073 11.667C12.4683 11.1296 12.5003 10.571 12.5003 10.0003C12.5003 9.42961 12.4683 8.871 12.4073 8.33366H7.59334C7.53232 8.871 7.50033 9.42961 7.50033 10.0003C7.50033 10.571 7.53232 11.1296 7.59334 11.667H12.4073ZM7.89177 13.3337H12.1089C11.9394 14.0083 11.719 14.6214 11.4559 15.1475C10.9326 16.194 10.3735 16.667 10.0003 16.667C9.62713 16.667 9.068 16.194 8.54476 15.1475C8.28168 14.6214 8.06127 14.0083 7.89177 13.3337ZM5.91701 11.667C5.86766 11.1808 5.83948 10.6792 5.83447 10.1663L5.83366 10.0003C5.83366 9.42955 5.86235 8.87218 5.91701 8.33366H3.54369C3.40658 8.86636 3.33366 9.42483 3.33366 10.0003C3.33366 10.5758 3.40658 11.1343 3.54369 11.667H5.91701ZM4.22554 13.3337H6.18105L6.20022 13.4231C6.32868 13.9927 6.4882 14.5282 6.67448 15.021L6.76983 15.2638C6.87716 15.527 6.99238 15.7768 7.11475 16.0118C5.90349 15.4294 4.89537 14.4916 4.22554 13.3337ZM13.8196 13.3337H15.7751C15.1053 14.4916 14.0972 15.4294 12.8859 16.0118C13.0083 15.7768 13.1235 15.527 13.2308 15.2638L13.3262 15.021C13.5124 14.5282 13.672 13.9927 13.8004 13.4231L13.8196 13.3337ZM11.4559 4.85313C11.719 5.37928 11.9394 5.99235 12.1089 6.66699H7.89177C8.06127 5.99235 8.28168 5.37928 8.54476 4.85313C9.068 3.80664 9.62713 3.33366 10.0003 3.33366C10.3735 3.33366 10.9326 3.80664 11.4559 4.85313ZM6.20022 6.57753L6.18105 6.66699H4.22554C4.89537 5.50905 5.90349 4.57128 7.11475 3.9888C6.99238 4.22382 6.87716 4.47365 6.76983 4.73683L6.67448 4.97964C6.4882 5.47245 6.32868 6.00796 6.20022 6.57753Z" fill="#5F6A7A"/>
</svg>
