<svg width="12" height="14" viewBox="0 0 12 14" fill="none" xmlns="http://www.w3.org/2000/svg">
<path d="M5.99967 8.33334C5.63148 8.33334 5.33301 8.63182 5.33301 9.00001V9.66668C5.33301 10.0349 5.63148 10.3333 5.99967 10.3333C6.36786 10.3333 6.66634 10.0349 6.66634 9.66668V9.00001C6.66634 8.63182 6.36786 8.33334 5.99967 8.33334Z" fill="#5F6A7A"/>
<path fill-rule="evenodd" clip-rule="evenodd" d="M2.66634 3.66668C2.66634 1.82573 4.15873 0.333344 5.99967 0.333344C7.84062 0.333344 9.33301 1.82573 9.33301 3.66668V5.00001H9.66634C10.7709 5.00001 11.6663 5.89544 11.6663 7.00001V11.6667C11.6663 12.7712 10.7709 13.6667 9.66634 13.6667H2.33301C1.22844 13.6667 0.333008 12.7712 0.333008 11.6667V7.00001C0.333008 5.89544 1.22844 5.00001 2.33301 5.00001H2.66634V3.66668ZM7.99967 3.66668V5.00001H3.99967V3.66668C3.99967 2.56211 4.89511 1.66668 5.99967 1.66668L6.07465 1.66806C7.14448 1.70749 7.99967 2.58721 7.99967 3.66668ZM2.33301 6.33334H9.66634L9.71609 6.33517C10.061 6.36062 10.333 6.64856 10.333 7.00001V11.6667L10.3312 11.7164C10.3057 12.0614 10.0178 12.3333 9.66634 12.3333H2.33301L2.28325 12.3315C1.9383 12.3061 1.66634 12.0181 1.66634 11.6667V7.00001L1.66817 6.95026C1.69362 6.6053 1.98155 6.33334 2.33301 6.33334Z" fill="#5F6A7A"/>
</svg>
