<svg width="20" height="20" viewBox="0 0 20 20" fill="none" xmlns="http://www.w3.org/2000/svg">
<path d="M7.50033 8.75033C7.04009 8.75033 6.66699 9.12342 6.66699 9.58366C6.66699 10.0439 7.04009 10.417 7.50033 10.417H9.16699V11.2503H7.50033C7.04009 11.2503 6.66699 11.6234 6.66699 12.0837C6.66699 12.5439 7.04009 12.917 7.50033 12.917H9.16699V13.7503C9.16699 14.2106 9.54009 14.5837 10.0003 14.5837C10.4606 14.5837 10.8337 14.2106 10.8337 13.7503V12.917H12.5003C12.9606 12.917 13.3337 12.5439 13.3337 12.0837C13.3337 11.6234 12.9606 11.2503 12.5003 11.2503H10.8337V10.417H12.5003C12.9606 10.417 13.3337 10.0439 13.3337 9.58366C13.3337 9.12342 12.9606 8.75033 12.5003 8.75033H11.1788L12.6729 7.25625C12.9984 6.93081 12.9984 6.40317 12.6729 6.07774C12.3646 5.76943 11.8748 5.7532 11.5474 6.02906L11.4944 6.07774L10.0003 7.57181L8.50625 6.07774L8.45324 6.02906C8.12583 5.7532 7.63604 5.76943 7.32774 6.07774C7.0023 6.40317 7.0023 6.93081 7.32774 7.25625L8.82181 8.75033H7.50033Z" fill="#3A8DFB"/>
<path fill-rule="evenodd" clip-rule="evenodd" d="M10.0003 1.66699C14.6027 1.66699 18.3337 5.39795 18.3337 10.0003C18.3337 14.6027 14.6027 18.3337 10.0003 18.3337C5.39795 18.3337 1.66699 14.6027 1.66699 10.0003C1.66699 5.39795 5.39795 1.66699 10.0003 1.66699ZM10.0003 3.33366C6.31843 3.33366 3.33366 6.31843 3.33366 10.0003C3.33366 13.6822 6.31843 16.667 10.0003 16.667C13.6822 16.667 16.667 13.6822 16.667 10.0003C16.667 6.31843 13.6822 3.33366 10.0003 3.33366Z" fill="#3A8DFB"/>
</svg>
