<svg width="14" height="14" viewBox="0 0 14 14" fill="none" xmlns="http://www.w3.org/2000/svg">
<path fill-rule="evenodd" clip-rule="evenodd" d="M6.99962 4.33332C8.47238 4.33332 9.66629 5.52723 9.66629 6.99999C9.66629 8.47275 8.47238 9.66666 6.99962 9.66666C5.52686 9.66666 4.33295 8.47275 4.33295 6.99999C4.33295 5.52723 5.52686 4.33332 6.99962 4.33332ZM6.99962 5.66666C6.26324 5.66666 5.66629 6.26361 5.66629 6.99999C5.66629 7.73637 6.26324 8.33332 6.99962 8.33332C7.736 8.33332 8.33295 7.73637 8.33295 6.99999C8.33295 6.26361 7.736 5.66666 6.99962 5.66666Z" fill="#237FFA"/>
<path fill-rule="evenodd" clip-rule="evenodd" d="M7.99962 0.666656C8.736 0.666656 9.33295 1.26361 9.33295 1.99999L9.33315 2.20291C9.56045 2.31368 9.77871 2.44014 9.98652 2.58088L10.1631 2.47926C10.8008 2.11107 11.6163 2.32957 11.9844 2.9673L12.9844 4.69935C13.3526 5.33707 13.1341 6.15253 12.4964 6.52072L12.3198 6.62283C12.3285 6.74742 12.333 6.87319 12.333 6.99999C12.333 7.12668 12.3285 7.25234 12.3198 7.37682L12.4964 7.47926C13.1341 7.84745 13.3526 8.66291 12.9844 9.30063L11.9844 11.0327C11.6163 11.6704 10.8008 11.8889 10.1631 11.5207L9.98652 11.4191C9.77871 11.5598 9.56045 11.6863 9.33315 11.7971L9.33295 12C9.33295 12.7364 8.736 13.3333 7.99962 13.3333H5.99962C5.26324 13.3333 4.66629 12.7364 4.66629 12L4.66643 11.7972C4.43893 11.6864 4.2205 11.5598 4.01253 11.419L3.83616 11.5207C3.19844 11.8889 2.38298 11.6704 2.01479 11.0327L1.01479 9.30063C0.646603 8.66291 0.865103 7.84745 1.50283 7.47926L1.67939 7.37682C1.6707 7.25234 1.66629 7.12668 1.66629 6.99999C1.66629 6.87319 1.67071 6.74742 1.67942 6.62283L1.50283 6.52072C0.865103 6.15253 0.646603 5.33707 1.01479 4.69935L2.01479 2.9673C2.38298 2.32957 3.19844 2.11107 3.83616 2.47926L4.01253 2.581C4.2205 2.44015 4.43893 2.3136 4.66643 2.20274L4.66629 1.99999C4.66629 1.26361 5.26324 0.666656 5.99962 0.666656H7.99962ZM6.00033 3.03597L5.25047 3.40136C5.12308 3.46343 4.99908 3.53227 4.879 3.60755L4.76023 3.68496L4.06924 4.15297L3.16949 3.63396L2.16949 5.36601L3.06753 5.88531L3.00951 6.71576C3.00293 6.80993 2.99962 6.9047 2.99962 6.99999L3.00209 7.1424L3.00949 7.28397L3.06736 8.11301L2.16949 8.63396L3.16994 10.3658L4.06924 9.84701L4.76023 10.315C4.87766 10.3945 4.99916 10.4678 5.12423 10.5343L5.25047 10.5986L6.00033 10.964L5.99962 12H7.99962L8.00061 10.9632L8.74902 10.5985C8.87631 10.5365 9.0002 10.4677 9.1202 10.3925L9.23887 10.3151L9.92909 9.84768L10.8297 10.366L11.8294 8.63378L10.9319 8.11301L10.9898 7.28397C10.9963 7.18988 10.9996 7.09519 10.9996 6.99999L10.9971 6.85745L10.9897 6.71576L10.9317 5.88531L11.8297 5.36601L10.8295 3.63408L9.92909 4.1523L9.23887 3.68487C9.12153 3.6054 9.00013 3.53226 8.87516 3.46575L8.74902 3.40148L8.00061 3.03674L7.99962 1.99999L5.99962 1.99988L6.00033 3.03597Z" fill="#237FFA"/>
</svg>
